<svg xmlns="http://www.w3.org/2000/svg" xmlns:xlink="http://www.w3.org/1999/xlink" width="40" zoomAndPan="magnify" viewBox="0 0 30 30.000001" height="40" preserveAspectRatio="xMidYMid meet" version="1.2"><defs><clipPath id="a32099f97c"><path d="M 18 5 L 29.515625 5 L 29.515625 19 L 18 19 Z M 18 5 "/></clipPath><clipPath id="29274fbd6f"><path d="M 0.484375 17.214844 L 28.292969 17.214844 L 28.292969 29 L 0.484375 29 Z M 0.484375 17.214844 "/></clipPath></defs><g id="5cee74184c"><g clip-rule="nonzero" clip-path="url(#a32099f97c)"><g style="fill:#004aad;fill-opacity:1;"><g transform="translate(17.869394, 17.039679)"><path style="stroke:none" d="M 11.015625 -5.765625 C 11.015625 -4.722656 10.820312 -3.773438 10.4375 -2.921875 C 10.050781 -2.066406 9.507812 -1.375 8.8125 -0.84375 L 11.1875 0.828125 L 10.09375 1.796875 L 7.4375 -0.109375 C 7.164062 -0.015625 6.890625 0.0507812 6.609375 0.09375 C 6.328125 0.144531 6.035156 0.171875 5.734375 0.171875 C 4.222656 0.171875 2.992188 -0.390625 2.046875 -1.515625 C 1.109375 -2.648438 0.640625 -4.066406 0.640625 -5.765625 L 0.640625 -5.9375 C 0.640625 -7.632812 1.109375 -9.050781 2.046875 -10.1875 C 2.992188 -11.320312 4.222656 -11.890625 5.734375 -11.890625 C 7.296875 -11.890625 8.566406 -11.320312 9.546875 -10.1875 C 10.523438 -9.050781 11.015625 -7.632812 11.015625 -5.9375 Z M 9.421875 -5.953125 C 9.421875 -7.316406 9.09375 -8.425781 8.4375 -9.28125 C 7.789062 -10.144531 6.890625 -10.578125 5.734375 -10.578125 C 4.628906 -10.578125 3.765625 -10.144531 3.140625 -9.28125 C 2.523438 -8.425781 2.21875 -7.316406 2.21875 -5.953125 L 2.21875 -5.765625 C 2.21875 -4.390625 2.523438 -3.269531 3.140625 -2.40625 C 3.765625 -1.550781 4.628906 -1.125 5.734375 -1.125 C 6.910156 -1.125 7.816406 -1.550781 8.453125 -2.40625 C 9.097656 -3.269531 9.421875 -4.390625 9.421875 -5.765625 Z M 9.421875 -5.953125 "/></g></g></g><g clip-rule="nonzero" clip-path="url(#29274fbd6f)"><path style=" stroke:none;fill-rule:nonzero;fill:#004aad;fill-opacity:1;" d="M 0.585938 25.640625 C 0.554688 25.664062 0.539062 25.691406 0.566406 25.71875 C 0.71875 25.863281 0.871094 26.007812 1.023438 26.152344 C 1.023438 26.15625 1.027344 26.160156 1.035156 26.164062 C 2.007812 27.09375 2.972656 28.027344 3.949219 28.953125 C 4.03125 29.03125 4.410156 28.878906 4.335938 28.808594 C 3.496094 28.007812 2.660156 27.203125 1.824219 26.402344 C 2.632812 26.617188 3.457031 26.753906 4.285156 26.863281 C 5.3125 27.003906 6.332031 27.164062 7.359375 27.292969 C 9.09375 27.511719 10.925781 27.597656 12.617188 27.0625 C 12.921875 26.964844 13.214844 26.84375 13.488281 26.703125 C 13.707031 26.8125 13.933594 26.914062 14.160156 27.011719 C 15.792969 27.695312 17.6875 28.070312 19.433594 27.632812 C 21.394531 27.144531 23.273438 26.226562 24.824219 24.9375 C 26.0625 23.914062 27.082031 22.777344 27.722656 21.289062 C 27.910156 20.855469 28.070312 20.40625 28.21875 19.953125 C 28.242188 19.882812 28.015625 19.890625 27.890625 19.949219 C 27.992188 19.679688 28.085938 19.40625 28.175781 19.132812 C 28.207031 19.035156 27.804688 19.085938 27.769531 19.199219 C 27.261719 20.761719 26.554688 22.257812 25.46875 23.507812 C 24.328125 24.824219 22.867188 25.875 21.25 26.53125 C 19.644531 27.183594 18.011719 27.449219 16.285156 27.210938 C 15.433594 27.09375 14.597656 26.871094 13.835938 26.503906 C 14.957031 25.8125 15.773438 24.746094 16.347656 23.503906 C 17.019531 22.046875 17.417969 20.082031 16.410156 18.660156 C 16.378906 18.617188 16.347656 18.578125 16.3125 18.535156 C 16.273438 18.488281 16.234375 18.441406 16.1875 18.394531 C 15.007812 17.210938 12.863281 17.933594 11.789062 18.886719 C 10.445312 20.082031 10.035156 21.9375 10.648438 23.613281 C 10.996094 24.558594 11.578125 25.320312 12.308594 25.910156 C 12.503906 26.089844 12.714844 26.25 12.941406 26.390625 C 11.289062 27.25 9.308594 27.28125 7.496094 27.082031 C 5.375 26.855469 3.292969 26.269531 1.273438 25.589844 C 2.484375 25.253906 3.648438 24.757812 4.875 24.472656 C 4.984375 24.445312 5.039062 24.402344 5.039062 24.367188 C 5.0625 24.332031 5.046875 24.308594 4.941406 24.308594 C 3.359375 24.308594 1.925781 24.792969 0.601562 25.632812 C 0.597656 25.632812 0.597656 25.632812 0.597656 25.632812 C 0.59375 25.636719 0.589844 25.636719 0.585938 25.640625 Z M 1.261719 25.867188 C 1.933594 26.089844 2.605469 26.296875 3.289062 26.484375 C 2.65625 26.367188 2.027344 26.21875 1.414062 26.011719 C 1.363281 25.964844 1.3125 25.917969 1.261719 25.867188 Z M 11.910156 24.75 C 11.175781 23.375 11.136719 21.5625 11.683594 20.121094 C 11.945312 19.425781 12.375 18.761719 13.011719 18.355469 C 13.417969 18.097656 13.9375 17.96875 14.441406 17.988281 C 14.648438 18 14.855469 18.035156 15.066406 18.101562 C 15.171875 18.136719 15.269531 18.175781 15.363281 18.21875 C 15.453125 18.269531 15.542969 18.324219 15.625 18.386719 C 15.730469 18.464844 15.828125 18.558594 15.914062 18.65625 C 15.921875 18.664062 15.929688 18.675781 15.9375 18.683594 C 15.941406 18.6875 15.941406 18.6875 15.945312 18.691406 C 16.65625 19.617188 16.289062 21.226562 15.960938 22.269531 C 15.464844 23.84375 14.699219 25.316406 13.277344 26.199219 C 13.195312 26.148438 13.117188 26.097656 13.035156 26.039062 C 12.578125 25.691406 12.1875 25.269531 11.910156 24.75 Z M 19.574219 27.234375 C 23.046875 26.359375 25.980469 24.128906 27.496094 20.898438 C 27.058594 22.003906 26.480469 23.023438 25.625 23.894531 C 24.378906 25.167969 22.886719 26.1875 21.238281 26.875 C 20.394531 27.226562 19.476562 27.558594 18.554688 27.625 C 17.894531 27.671875 17.226562 27.609375 16.574219 27.476562 C 17.597656 27.554688 18.632812 27.46875 19.574219 27.234375 Z M 13.65625 26.414062 C 13.585938 26.378906 13.519531 26.339844 13.453125 26.300781 C 14.601562 25.609375 15.449219 24.566406 15.988281 23.269531 C 16.207031 22.734375 16.410156 22.175781 16.554688 21.601562 C 16.511719 21.910156 16.449219 22.199219 16.367188 22.457031 C 15.894531 23.960938 15.027344 25.546875 13.65625 26.414062 Z M 11.039062 20.480469 C 11.175781 20.128906 11.371094 19.785156 11.613281 19.46875 C 10.949219 20.566406 10.800781 22 10.976562 23.226562 C 10.980469 23.238281 10.980469 23.253906 10.984375 23.265625 C 10.703125 22.359375 10.683594 21.382812 11.039062 20.480469 Z M 13.105469 26.496094 C 13.175781 26.535156 13.242188 26.574219 13.3125 26.609375 C 13.296875 26.621094 13.277344 26.628906 13.257812 26.640625 C 12.359375 27.085938 11.359375 27.253906 10.34375 27.285156 C 10.984375 27.207031 11.613281 27.074219 12.222656 26.867188 C 12.535156 26.765625 12.828125 26.636719 13.105469 26.496094 Z M 1.316406 25.421875 C 2.191406 24.929688 3.105469 24.621094 4.09375 24.523438 C 3.164062 24.800781 2.253906 25.15625 1.316406 25.421875 Z M 1.316406 25.421875 "/></g></g></svg>