<svg xmlns="http://www.w3.org/2000/svg" xmlns:xlink="http://www.w3.org/1999/xlink" width="500" zoomAndPan="magnify" viewBox="0 0 375 374.999991" height="500" preserveAspectRatio="xMidYMid meet" version="1.2"><defs><clipPath id="2b37b91690"><path d="M 154.4375 136 L 304.4375 136 L 304.4375 197 L 154.4375 197 Z M 154.4375 136 "/></clipPath></defs><g id="2a2ca4a247"><g style="fill:#247ba0;fill-opacity:1;"><g transform="translate(47.642214, 218.772552)"><path style="stroke:none" d="M 59.40625 -31.140625 C 59.40625 -25.523438 58.363281 -20.398438 56.28125 -15.765625 C 54.195312 -11.128906 51.285156 -7.394531 47.546875 -4.5625 L 60.359375 4.46875 L 54.5 9.6875 L 40.125 -0.5625 C 38.675781 -0.101562 37.1875 0.253906 35.65625 0.515625 C 34.125 0.773438 32.5625 0.90625 30.96875 0.90625 C 22.800781 0.90625 16.171875 -2.128906 11.078125 -8.203125 C 5.984375 -14.285156 3.4375 -21.929688 3.4375 -31.140625 L 3.4375 -32.046875 C 3.4375 -41.222656 5.984375 -48.863281 11.078125 -54.96875 C 16.171875 -61.082031 22.800781 -64.140625 30.96875 -64.140625 C 39.363281 -64.140625 46.203125 -61.082031 51.484375 -54.96875 C 56.765625 -48.863281 59.40625 -41.222656 59.40625 -32.046875 Z M 50.859375 -32.140625 C 50.859375 -39.492188 49.097656 -45.492188 45.578125 -50.140625 C 42.054688 -54.785156 37.1875 -57.109375 30.96875 -57.109375 C 25 -57.109375 20.34375 -54.773438 17 -50.109375 C 13.65625 -45.453125 11.984375 -39.460938 11.984375 -32.140625 L 11.984375 -31.140625 C 11.984375 -23.722656 13.65625 -17.691406 17 -13.046875 C 20.34375 -8.398438 25 -6.078125 30.96875 -6.078125 C 37.28125 -6.078125 42.171875 -8.390625 45.640625 -13.015625 C 49.117188 -17.648438 50.859375 -23.691406 50.859375 -31.140625 Z M 50.859375 -32.140625 "/></g></g><g style="fill:#247ba0;fill-opacity:1;"><g transform="translate(110.432585, 218.772552)"><path style="stroke:none" d="M 37.484375 -6.953125 C 36.003906 -4.429688 34.097656 -2.488281 31.765625 -1.125 C 29.429688 0.226562 26.742188 0.90625 23.703125 0.90625 C 18.609375 0.90625 14.628906 -0.726562 11.765625 -4 C 8.898438 -7.269531 7.46875 -12.363281 7.46875 -19.28125 L 7.46875 -40.25 L 2.078125 -41.46875 L 2.078125 -46.984375 L 16.03125 -46.984375 L 16.03125 -19.1875 C 16.03125 -14.1875 16.765625 -10.742188 18.234375 -8.859375 C 19.710938 -6.972656 22.015625 -6.03125 25.140625 -6.03125 C 28.179688 -6.03125 30.691406 -6.644531 32.671875 -7.875 C 34.660156 -9.113281 36.160156 -10.859375 37.171875 -13.109375 L 37.171875 -40.25 L 30.875 -41.46875 L 30.875 -46.984375 L 45.734375 -46.984375 L 45.734375 -6.6875 L 51.109375 -5.46875 L 51.109375 0 L 38.046875 0 Z M 37.484375 -6.953125 "/></g></g><g style="fill:#247ba0;fill-opacity:1;"><g transform="translate(164.451411, 218.772552)"><path style="stroke:none" d="M 3.859375 -5.46875 L 10.9375 -6.6875 L 10.9375 -40.25 L 3.859375 -41.46875 L 3.859375 -46.984375 L 19.5 -46.984375 L 19.5 -6.6875 L 26.578125 -5.46875 L 26.578125 0 L 3.859375 0 Z M 19.5 -59.015625 L 10.9375 -59.015625 L 10.9375 -67.75 L 19.5 -67.75 Z M 19.5 -59.015625 "/></g></g><g style="fill:#247ba0;fill-opacity:1;"><g transform="translate(193.675453, 218.772552)"><path style="stroke:none" d="M 19.96875 -41.46875 L 14.328125 -40.609375 L 24.015625 -13.859375 L 24.796875 -10.46875 L 25.0625 -10.46875 L 25.875 -13.859375 L 35.265625 -40.609375 L 29.578125 -41.46875 L 29.578125 -46.984375 L 47.71875 -46.984375 L 47.71875 -41.46875 L 43.859375 -40.828125 L 28.09375 0 L 21.625 0 L 5.6875 -40.828125 L 1.828125 -41.46875 L 1.828125 -46.984375 L 19.96875 -46.984375 Z M 19.96875 -41.46875 "/></g></g><g style="fill:#247ba0;fill-opacity:1;"><g transform="translate(242.744001, 218.772552)"><path style="stroke:none" d="M 25.3125 0.90625 C 18.769531 0.90625 13.566406 -1.269531 9.703125 -5.625 C 5.835938 -9.976562 3.90625 -15.628906 3.90625 -22.578125 L 3.90625 -24.5 C 3.90625 -31.1875 5.894531 -36.75 9.875 -41.1875 C 13.851562 -45.632812 18.566406 -47.859375 24.015625 -47.859375 C 30.328125 -47.859375 35.109375 -45.945312 38.359375 -42.125 C 41.617188 -38.300781 43.25 -33.207031 43.25 -26.84375 L 43.25 -21.5 L 12.765625 -21.5 L 12.640625 -21.28125 C 12.722656 -16.757812 13.863281 -13.046875 16.0625 -10.140625 C 18.269531 -7.234375 21.351562 -5.78125 25.3125 -5.78125 C 28.207031 -5.78125 30.75 -6.191406 32.9375 -7.015625 C 35.125 -7.835938 37.015625 -8.972656 38.609375 -10.421875 L 41.953125 -4.859375 C 40.273438 -3.242188 38.050781 -1.878906 35.28125 -0.765625 C 32.519531 0.347656 29.195312 0.90625 25.3125 0.90625 Z M 24.015625 -41.125 C 21.148438 -41.125 18.703125 -39.914062 16.671875 -37.5 C 14.648438 -35.082031 13.40625 -32.050781 12.9375 -28.40625 L 13.03125 -28.1875 L 34.703125 -28.1875 L 34.703125 -29.3125 C 34.703125 -32.664062 33.800781 -35.472656 32 -37.734375 C 30.207031 -39.992188 27.546875 -41.125 24.015625 -41.125 Z M 24.015625 -41.125 "/></g></g><g style="fill:#247ba0;fill-opacity:1;"><g transform="translate(290.553298, 218.772552)"><path style="stroke:none" d="M 3.859375 -41.46875 L 3.859375 -46.984375 L 18.59375 -46.984375 L 19.40625 -40.171875 C 20.738281 -42.578125 22.378906 -44.457031 24.328125 -45.8125 C 26.285156 -47.175781 28.523438 -47.859375 31.046875 -47.859375 C 31.710938 -47.859375 32.398438 -47.804688 33.109375 -47.703125 C 33.816406 -47.597656 34.359375 -47.488281 34.734375 -47.375 L 33.609375 -39.4375 L 28.75 -39.6875 C 26.488281 -39.6875 24.59375 -39.15625 23.0625 -38.09375 C 21.53125 -37.039062 20.34375 -35.5625 19.5 -33.65625 L 19.5 -6.6875 L 26.578125 -5.46875 L 26.578125 0 L 3.859375 0 L 3.859375 -5.46875 L 10.9375 -6.6875 L 10.9375 -40.25 Z M 3.859375 -41.46875 "/></g></g><g clip-rule="nonzero" clip-path="url(#2b37b91690)"><path style=" stroke:none;fill-rule:nonzero;fill:#247ba0;fill-opacity:1;" d="M 303.875 154.222656 C 304.050781 154.097656 304.140625 153.949219 303.992188 153.8125 C 303.171875 153.03125 302.351562 152.246094 301.53125 151.464844 C 301.519531 151.441406 301.5 151.417969 301.464844 151.402344 C 296.21875 146.394531 291.007812 141.355469 285.75 136.363281 C 285.296875 135.933594 283.246094 136.753906 283.65625 137.144531 C 288.191406 141.449219 292.691406 145.792969 297.207031 150.113281 C 292.851562 148.964844 288.40625 148.226562 283.925781 147.625 C 278.398438 146.882812 272.882812 146.015625 267.347656 145.316406 C 257.992188 144.136719 248.101562 143.664062 239 146.550781 C 237.335938 147.078125 235.769531 147.734375 234.289062 148.503906 C 233.101562 147.898438 231.882812 147.351562 230.664062 146.839844 C 221.851562 143.136719 211.644531 141.121094 202.21875 143.472656 C 191.652344 146.113281 181.519531 151.066406 173.144531 158.011719 C 166.46875 163.546875 160.96875 169.683594 157.503906 177.691406 C 156.488281 180.046875 155.628906 182.464844 154.839844 184.90625 C 154.714844 185.292969 155.917969 185.234375 156.605469 184.921875 C 156.054688 186.382812 155.542969 187.855469 155.0625 189.339844 C 154.894531 189.855469 157.070312 189.585938 157.265625 188.980469 C 159.996094 180.546875 163.820312 172.484375 169.671875 165.730469 C 175.816406 158.640625 183.699219 152.964844 192.414062 149.425781 C 201.078125 145.910156 209.894531 144.46875 219.191406 145.753906 C 223.785156 146.390625 228.304688 147.585938 232.410156 149.566406 C 226.359375 153.300781 221.96875 159.042969 218.875 165.746094 C 215.246094 173.621094 213.09375 184.203125 218.53125 191.875 C 218.699219 192.109375 218.871094 192.332031 219.050781 192.546875 C 219.261719 192.808594 219.480469 193.0625 219.722656 193.308594 C 226.089844 199.695312 237.667969 195.804688 243.453125 190.660156 C 250.710938 184.203125 252.914062 174.195312 249.609375 165.175781 C 247.734375 160.058594 244.59375 155.949219 240.664062 152.765625 C 239.609375 151.796875 238.457031 150.945312 237.246094 150.175781 C 246.148438 145.550781 256.84375 145.386719 266.613281 146.441406 C 278.0625 147.679688 289.28125 150.828125 300.171875 154.496094 C 293.636719 156.3125 287.367188 158.984375 280.75 160.53125 C 280.152344 160.671875 279.875 160.910156 279.867188 161.101562 C 279.734375 161.277344 279.828125 161.417969 280.386719 161.417969 C 288.917969 161.417969 296.652344 158.800781 303.808594 154.273438 C 303.8125 154.269531 303.8125 154.269531 303.816406 154.265625 C 303.816406 154.265625 303.820312 154.265625 303.820312 154.265625 C 303.839844 154.253906 303.855469 154.238281 303.875 154.222656 Z M 300.230469 153 C 296.625 151.808594 292.984375 150.6875 289.316406 149.679688 C 292.726562 150.316406 296.101562 151.117188 299.417969 152.222656 C 299.6875 152.480469 299.960938 152.742188 300.230469 153 Z M 242.796875 159.035156 C 246.761719 166.445312 246.96875 176.21875 244.027344 184.011719 C 242.613281 187.757812 240.289062 191.328125 236.851562 193.515625 C 234.660156 194.910156 231.871094 195.621094 229.152344 195.511719 C 228.035156 195.445312 226.90625 195.246094 225.777344 194.890625 C 225.203125 194.710938 224.675781 194.496094 224.183594 194.253906 C 223.6875 193.996094 223.210938 193.703125 222.765625 193.359375 C 222.195312 192.925781 221.675781 192.4375 221.207031 191.910156 C 221.164062 191.855469 221.117188 191.804688 221.074219 191.75 C 221.066406 191.738281 221.054688 191.726562 221.042969 191.714844 C 217.207031 186.722656 219.1875 178.039062 220.957031 172.40625 C 223.617188 163.929688 227.769531 155.972656 235.421875 151.214844 C 235.863281 151.488281 236.300781 151.773438 236.730469 152.070312 C 239.195312 153.949219 241.300781 156.230469 242.796875 159.035156 Z M 201.46875 145.636719 C 182.726562 150.34375 166.902344 162.378906 158.734375 179.816406 C 161.089844 173.851562 164.214844 168.351562 168.8125 163.65625 C 175.539062 156.785156 183.585938 151.269531 192.484375 147.570312 C 197.046875 145.675781 201.988281 143.878906 206.953125 143.523438 C 210.523438 143.265625 214.125 143.617188 217.640625 144.316406 C 212.113281 143.894531 206.542969 144.363281 201.46875 145.636719 Z M 233.378906 150.054688 C 233.753906 150.25 234.121094 150.453125 234.488281 150.660156 C 228.292969 154.402344 223.710938 160.019531 220.8125 167.023438 C 219.621094 169.902344 218.527344 172.925781 217.746094 176.003906 C 217.972656 174.359375 218.320312 172.792969 218.757812 171.402344 C 221.316406 163.289062 225.980469 154.734375 233.378906 150.054688 Z M 247.507812 182.066406 C 246.769531 183.960938 245.707031 185.816406 244.40625 187.519531 C 247.984375 181.597656 248.789062 173.867188 247.828125 167.246094 C 247.820312 167.179688 247.808594 167.109375 247.796875 167.042969 C 249.3125 171.925781 249.410156 177.191406 247.507812 182.066406 Z M 236.347656 149.625 C 235.980469 149.40625 235.605469 149.199219 235.230469 148.996094 C 235.332031 148.945312 235.429688 148.890625 235.53125 148.839844 C 240.375 146.441406 245.78125 145.523438 251.25 145.367188 C 247.804688 145.773438 244.402344 146.488281 241.105469 147.601562 C 239.433594 148.167969 237.847656 148.847656 236.347656 149.625 Z M 299.9375 155.410156 C 295.230469 158.058594 290.296875 159.730469 284.957031 160.253906 C 289.988281 158.765625 294.890625 156.847656 299.9375 155.410156 Z M 299.9375 155.410156 "/></g></g></svg>